<svg height="368pt" viewBox="0 0 368 368" width="368pt" xmlns="http://www.w3.org/2000/svg"><path style="fill:#fff" d="m363.574219 176.824219-117.351563-58.632813s0 0-.007812-.007812l-234.640625-117.359375c-.117188-.0625-.253907-.082031-.382813-.136719-.183594-.078125-.375-.128906-.566406-.199219-.769531-.273437-1.546875-.425781-2.34375-.457031-.136719-.0078125-.265625-.03125-.410156-.03125-.894532.015625-1.773438.199219-2.640625.519531-.191407.074219-.359375.167969-.542969.257813-.304688.132812-.617188.230468-.894531.398437-.472657.296875-.871094.65625-1.265625 1.03125-.054688.050781-.128906.066407-.183594.121094-.015625.015625-.023438.039063-.039062.054687-.65625.671876-1.152344 1.472657-1.542969 2.320313-.089844.199219-.167969.402344-.242188.609375-.304687.855469-.519531 1.734375-.519531 2.671875v352c0 .9375.214844 1.816406.519531 2.671875.074219.207031.152344.398438.242188.609375.382812.855469.878906 1.644531 1.542969 2.320313.015624.015624.023437.039062.039062.054687.054688.054687.128906.070313.183594.121094.394531.375.800781.734375 1.273437 1.03125.261719.160156.550781.230469.832031.367187.238282.113282.464844.222656.703126.3125.855468.304688 1.753906.511719 2.664062.511719 1.136719 0 2.246094-.296875 3.296875-.777344.085937-.039062.191406-.023437.277344-.0625l234.640625-117.359375 117.351562-58.640625c2.722656-1.351562 4.433594-4.128906 4.433594-7.160156s-1.710938-5.808594-4.425781-7.160156zm-190.886719 7.160156-156.6875 156.6875v-313.375zm11.3125-11.3125-135.472656-135.472656 180.609375 90.335937zm-135.472656 158.097656 135.472656-135.472656 45.136719 45.144531zm195.695312-97.882812-48.910156-48.902344 48.910156-48.90625 97.882813 48.90625zm0 0"/></svg>